<svg width="14" height="14" viewBox="0 0 14 14" fill="none" xmlns="http://www.w3.org/2000/svg">
<path d="M6.25421 0.478983C6.35888 0.26002 6.48972 0.123167 6.69907 0.0410557C6.90841 -0.0136852 7.09159 -0.0136852 7.30093 0.0410557C7.51028 0.123167 7.66729 0.26002 7.77196 0.478983L9.4729 4.09189L13.2935 4.66667C13.5028 4.72141 13.686 4.83089 13.8168 4.99511C13.9477 5.18671 14 5.3783 14 5.59726C14 5.81623 13.9215 6.00782 13.7645 6.17204L10.9907 8.9912L11.6449 12.9873C11.671 13.2063 11.6187 13.4252 11.514 13.6168C11.4093 13.8084 11.2523 13.9179 11.043 13.9726C10.8336 14.0274 10.6243 14 10.4411 13.8905L7.01308 12.0293L3.58505 13.8905C3.3757 14 3.19252 14.0274 2.98318 13.9726C2.77383 13.9179 2.59065 13.8084 2.48598 13.6168C2.38131 13.4252 2.32897 13.2063 2.38131 12.9873L3.03551 8.9912L0.261682 6.17204C0.104673 6.00782 0 5.81623 0 5.59726C0 5.3783 0.0523365 5.18671 0.183178 4.99511C0.314019 4.83089 0.497196 4.72141 0.73271 4.66667L4.55327 4.09189L6.25421 0.478983Z" fill="#0066FF"/>
</svg>
